<?xml version="1.0" encoding="UTF-8" standalone="no"?>
<!-- Created with Inkscape (http://www.inkscape.org/) -->
<svg
   xmlns:dc="http://purl.org/dc/elements/1.1/"
   xmlns:cc="http://creativecommons.org/ns#"
   xmlns:rdf="http://www.w3.org/1999/02/22-rdf-syntax-ns#"
   xmlns:svg="http://www.w3.org/2000/svg"
   xmlns="http://www.w3.org/2000/svg"
   xmlns:xlink="http://www.w3.org/1999/xlink"
   xmlns:sodipodi="http://sodipodi.sourceforge.net/DTD/sodipodi-0.dtd"
   xmlns:inkscape="http://www.inkscape.org/namespaces/inkscape"
   width="64px"
   height="64px"
   id="svg1307"
   sodipodi:version="0.32"
   inkscape:version="0.46"
   sodipodi:docbase="/Users/lijon/Coding/AlgoScore"
   sodipodi:docname="as_icon.svg"
   inkscape:output_extension="org.inkscape.output.svg.inkscape">
  <defs
     id="defs1309">
    <inkscape:perspective
       sodipodi:type="inkscape:persp3d"
       inkscape:vp_x="0 : 32 : 1"
       inkscape:vp_y="0 : 1000 : 0"
       inkscape:vp_z="64 : 32 : 1"
       inkscape:persp3d-origin="32 : 21.333333 : 1"
       id="perspective16" />
  </defs>
  <sodipodi:namedview
     id="base"
     pagecolor="#ffffff"
     bordercolor="#666666"
     borderopacity="1.0"
     inkscape:pageopacity="0.0"
     inkscape:pageshadow="2"
     inkscape:zoom="7.7781746"
     inkscape:cx="32"
     inkscape:cy="31.831472"
     inkscape:current-layer="layer1"
     showgrid="true"
     inkscape:document-units="px"
     inkscape:grid-bbox="true"
     inkscape:grid-points="false"
     showguides="false"
     inkscape:guide-bbox="false"
     inkscape:guide-points="false"
     inkscape:window-width="1107"
     inkscape:window-height="791"
     inkscape:window-x="149"
     inkscape:window-y="169">
    <sodipodi:guide
       orientation="horizontal"
       position="9.2566706"
       id="guide1317" />
    <sodipodi:guide
       orientation="vertical"
       position="4.885465"
       id="guide1319" />
    <sodipodi:guide
       orientation="horizontal"
       position="42.940666"
       id="guide1321" />
    <sodipodi:guide
       orientation="vertical"
       position="30.212744"
       id="guide1323" />
    <sodipodi:guide
       orientation="vertical"
       position="55.025764"
       id="guide1325" />
    <inkscape:grid
       id="GridFromPre046Settings"
       type="xygrid"
       originx="0px"
       originy="0px"
       spacingx="1px"
       spacingy="1px"
       color="#0000ff"
       empcolor="#0000ff"
       opacity="0.2"
       empopacity="0.4"
       empspacing="5" />
  </sodipodi:namedview>
  <metadata
     id="metadata1312">
    <rdf:RDF>
      <cc:Work
         rdf:about="">
        <dc:format>image/svg+xml</dc:format>
        <dc:type
           rdf:resource="http://purl.org/dc/dcmitype/StillImage" />
      </cc:Work>
    </rdf:RDF>
  </metadata>
  <g
     id="layer1"
     inkscape:label="Layer 1"
     inkscape:groupmode="layer">
    <path
       sodipodi:type="arc"
       style="opacity:1;fill:#3c718e;fill-opacity:1;fill-rule:nonzero;stroke:#000000;stroke-width:1.3047694;stroke-linecap:square;stroke-linejoin:round;stroke-miterlimit:4;stroke-dasharray:none;stroke-dashoffset:0;stroke-opacity:1"
       id="path2229"
       sodipodi:cx="31.884089"
       sodipodi:cy="34.365799"
       sodipodi:rx="31.112698"
       sodipodi:ry="29.119944"
       d="M 62.996786 34.365799 A 31.112698 29.119944 0 1 1  0.77139091,34.365799 A 31.112698 29.119944 0 1 1  62.996786 34.365799 z"
       transform="matrix(0.891458,0,0,0.952463,3.576674,-0.732152)" />
    <path
       sodipodi:type="inkscape:offset"
       inkscape:radius="0.92535359"
       inkscape:original="M 20.78125 14.46875 C 19.465631 14.529096 18.278689 15.276869 17.65625 16.4375 L 2.59375 44 C 1.9620093 45.158541 1.9829933 46.552582 2.65625 47.6875 C 3.3295068 48.822419 4.5554115 49.530277 5.875 49.53125 L 12.4375 49.53125 C 13.785127 49.527682 15.026656 48.799477 15.6875 47.625 L 23.28125 34.1875 L 28.1875 47.125 C 28.74149 48.575911 30.134425 49.533553 31.6875 49.53125 L 58.125 49.53125 C 59.649154 49.544455 61.041204 48.626728 61.625 47.21875 C 62.208794 45.810772 61.86756 44.194183 60.78125 43.125 L 45.03125 27.34375 L 56.34375 27.34375 C 57.339084 27.346277 58.29619 26.95381 59 26.25 C 59.703809 25.546191 60.096277 24.589084 60.09375 23.59375 L 60.09375 18.21875 C 60.096277 17.223416 59.70381 16.26631 59 15.5625 C 58.296189 14.85869 57.339084 14.466223 56.34375 14.46875 L 30.96875 14.46875 C 29.475587 14.454293 28.104568 15.322127 27.5 16.6875 C 26.895431 18.052873 27.173155 19.654167 28.1875 20.75 L 42.46875 36.46875 L 32.90625 36.40625 L 24.375 16.71875 C 23.75888 15.296674 22.329612 14.401828 20.78125 14.46875 z "
       xlink:href="#path2225"
       style="fill:#000000;fill-opacity:1;fill-rule:evenodd;stroke:none;stroke-width:1;stroke-linecap:butt;stroke-linejoin:round;stroke-miterlimit:4;stroke-dasharray:none;stroke-opacity:1"
       id="path2249"
       inkscape:href="#path2225"
       d="M 20.75,13.53125 C 19.110298,13.606461 17.619518,14.553464 16.84375,16 L 1.78125,43.5625 C 0.99601919,45.002524 1.0364041,46.742618 1.875,48.15625 C 2.7135956,49.569883 4.2249135,50.467533 5.875,50.46875 L 12.4375,50.46875 C 14.116969,50.464303 15.676429,49.557432 16.5,48.09375 L 23.125,36.375 L 27.3125,47.4375 C 27.312324,47.447916 27.312324,47.458334 27.3125,47.46875 C 28.002469,49.275793 29.753217,50.471618 31.6875,50.46875 L 58.125,50.46875 C 60.025444,50.485215 61.740105,49.31982 62.46875,47.5625 C 63.197392,45.805181 62.787108,43.79708 61.4375,42.46875 L 47.28125,28.28125 L 56.34375,28.28125 C 57.583837,28.284398 58.777461,27.785039 59.65625,26.90625 C 60.535039,26.027461 61.034398,24.833837 61.03125,23.59375 L 61.03125,18.21875 C 61.034398,16.978663 60.535039,15.785039 59.65625,14.90625 C 58.77746,14.027461 57.583837,13.528102 56.34375,13.53125 L 30.96875,13.53125 C 29.111607,13.513269 27.411735,14.606291 26.65625,16.3125 C 26.287248,17.145862 26.177126,18.042122 26.3125,18.90625 L 25.21875,16.34375 C 24.451392,14.5726 22.678436,13.447901 20.75,13.53125 z M 26.65625,19.6875 C 26.865753,20.283112 27.056195,20.895542 27.5,21.375 L 40.34375,35.53125 L 33.5,35.46875 L 26.65625,19.6875 z "
       transform="translate(-2.16721e-2,2.082043e-3)" />
    <path
       sodipodi:type="inkscape:offset"
       inkscape:radius="3.7401409"
       inkscape:original="M 20.9375 18.21875 L 5.875 45.78125 L 12.4375 45.78125 L 23.9375 25.40625 L 31.6875 45.78125 L 58.125 45.78125 L 36 23.59375 L 56.34375 23.59375 L 56.34375 18.21875 L 30.96875 18.21875 L 51.03125 40.28125 L 30.4375 40.125 L 20.9375 18.21875 z "
       xlink:href="#path2217"
       style="fill:#ffffff;fill-opacity:1;fill-rule:evenodd;stroke:none;stroke-width:1;stroke-linecap:butt;stroke-linejoin:round;stroke-miterlimit:4;stroke-dasharray:none;stroke-opacity:1"
       id="path2225"
       inkscape:href="#path2217"
       d="M 20.78125,14.46875 C 19.465631,14.529096 18.278689,15.276869 17.65625,16.4375 L 2.59375,44 C 1.9620093,45.158541 1.9874551,46.564235 2.6607119,47.699154 C 3.3339686,48.834072 4.5554115,49.530277 5.875,49.53125 L 12.4375,49.53125 C 13.785127,49.527682 15.026656,48.799477 15.6875,47.625 L 23.28125,34.1875 L 28.1875,47.125 C 28.74149,48.575911 30.134425,49.533553 31.6875,49.53125 L 58.125,49.53125 C 59.649154,49.544455 61.028881,48.631527 61.612677,47.223549 C 62.196473,45.815571 61.86756,44.194183 60.78125,43.125 L 45.03125,27.34375 L 56.34375,27.34375 C 57.339084,27.346277 58.294381,26.952001 58.998191,26.248191 C 59.702001,25.544381 60.096277,24.589084 60.09375,23.59375 L 60.09375,18.21875 C 60.096277,17.223416 59.702001,16.268119 58.998191,15.564309 C 58.294381,14.860499 57.339084,14.466223 56.34375,14.46875 L 30.96875,14.46875 C 29.475587,14.454293 28.116877,15.329288 27.512309,16.694661 C 26.907741,18.060033 27.173155,19.654167 28.1875,20.75 L 42.46875,36.46875 L 32.90625,36.40625 L 24.375,16.71875 C 23.75888,15.296674 22.329612,14.401828 20.78125,14.46875 z "
       transform="translate(-1.764005e-2,1.684819e-3)" />
    <path
       style="fill:#000000;fill-opacity:1;fill-rule:evenodd;stroke:#000000;stroke-width:1.40000057;stroke-linecap:butt;stroke-linejoin:miter;stroke-miterlimit:4;stroke-dasharray:none;stroke-opacity:1"
       d="M 5.8695342,45.788945 L 20.928286,18.211055 L 30.451179,40.131545 L 51.045787,40.273369 L 30.967453,18.211055 L 56.337592,18.211055 L 56.337592,23.58481 L 35.987037,23.58481 L 58.130466,45.788945 L 31.684602,45.788945 L 23.940037,25.405646 L 12.452024,45.788945 L 5.8695342,45.788945 z "
       id="path2217"
       sodipodi:nodetypes="ccccccccccccc" />
  </g>
</svg>
