<?xml version="1.0" encoding="UTF-8" standalone="no"?>
<!-- Created with Inkscape (http://www.inkscape.org/) -->
<svg
   xmlns:dc="http://purl.org/dc/elements/1.1/"
   xmlns:cc="http://web.resource.org/cc/"
   xmlns:rdf="http://www.w3.org/1999/02/22-rdf-syntax-ns#"
   xmlns:svg="http://www.w3.org/2000/svg"
   xmlns="http://www.w3.org/2000/svg"
   xmlns:xlink="http://www.w3.org/1999/xlink"
   xmlns:sodipodi="http://inkscape.sourceforge.net/DTD/sodipodi-0.dtd"
   xmlns:inkscape="http://www.inkscape.org/namespaces/inkscape"
   width="64px"
   height="64px"
   id="svg1307"
   sodipodi:version="0.32"
   inkscape:version="0.43"
   sodipodi:docbase="/Users/lijon/Coding/AlgoScore"
   sodipodi:docname="as_icon2.svg">
  <defs
     id="defs1309">
    <linearGradient
       id="linearGradient3058">
      <stop
         style="stop-color:#215236;stop-opacity:1;"
         offset="0"
         id="stop3060" />
      <stop
         style="stop-color:#dce7b9;stop-opacity:1;"
         offset="1"
         id="stop3062" />
    </linearGradient>
    <linearGradient
       inkscape:collect="always"
       xlink:href="#linearGradient3058"
       id="linearGradient3064"
       x1="53.503422"
       y1="55.745773"
       x2="13.935963"
       y2="10.723274"
       gradientUnits="userSpaceOnUse" />
  </defs>
  <sodipodi:namedview
     id="base"
     pagecolor="#ffffff"
     bordercolor="#666666"
     borderopacity="1.0"
     inkscape:pageopacity="0.0"
     inkscape:pageshadow="2"
     inkscape:zoom="5.5"
     inkscape:cx="32"
     inkscape:cy="31.831472"
     inkscape:current-layer="layer1"
     showgrid="true"
     inkscape:document-units="px"
     inkscape:grid-bbox="true"
     inkscape:grid-points="false"
     gridempspacing="5"
     showguides="false"
     inkscape:guide-bbox="false"
     inkscape:guide-points="false"
     inkscape:window-width="1107"
     inkscape:window-height="791"
     inkscape:window-x="149"
     inkscape:window-y="169">
    <sodipodi:guide
       orientation="horizontal"
       position="9.2566706"
       id="guide1317" />
    <sodipodi:guide
       orientation="vertical"
       position="4.885465"
       id="guide1319" />
    <sodipodi:guide
       orientation="horizontal"
       position="42.940666"
       id="guide1321" />
    <sodipodi:guide
       orientation="vertical"
       position="30.212744"
       id="guide1323" />
    <sodipodi:guide
       orientation="vertical"
       position="55.025764"
       id="guide1325" />
  </sodipodi:namedview>
  <metadata
     id="metadata1312">
    <rdf:RDF>
      <cc:Work
         rdf:about="">
        <dc:format>image/svg+xml</dc:format>
        <dc:type
           rdf:resource="http://purl.org/dc/dcmitype/StillImage" />
      </cc:Work>
    </rdf:RDF>
  </metadata>
  <g
     id="layer1"
     inkscape:label="Layer 1"
     inkscape:groupmode="layer">
    <path
       sodipodi:type="arc"
       style="opacity:1;fill:url(#linearGradient3064);fill-opacity:1.0;fill-rule:nonzero;stroke:#000000;stroke-width:1.3047694;stroke-linecap:square;stroke-linejoin:round;stroke-miterlimit:4;stroke-dasharray:none;stroke-dashoffset:0;stroke-opacity:1"
       id="path2229"
       sodipodi:cx="31.884089"
       sodipodi:cy="34.365799"
       sodipodi:rx="31.112698"
       sodipodi:ry="29.119944"
       d="M 62.996786 34.365799 A 31.112698 29.119944 0 1 1  0.77139091,34.365799 A 31.112698 29.119944 0 1 1  62.996786 34.365799 z"
       transform="matrix(0.891458,0,0,0.952463,3.576674,-0.732152)" />
    <path
       sodipodi:type="inkscape:offset"
       inkscape:radius="4.1392279"
       inkscape:original="M 21.1875 17.84375 L 5.84375 47.65625 L 12.5625 47.65625 L 24.25 25.625 L 32.125 47.65625 L 59.03125 47.65625 L 36.5 23.65625 L 57.21875 23.65625 L 57.21875 17.84375 L 31.40625 17.84375 L 51.8125 41.6875 L 30.875 41.53125 L 21.1875 17.84375 z "
       xlink:href="#path2217"
       style="fill:#ffffff;fill-opacity:1;fill-rule:evenodd;stroke:#000000;stroke-width:1.39999998;stroke-linecap:butt;stroke-linejoin:round;stroke-miterlimit:4;stroke-dasharray:none;stroke-opacity:1"
       id="path2225"
       inkscape:href="#path2217"
       d="M 20.6875,14.21875 C 19.322473,14.383116 18.12812,15.214479 17.5,16.4375 L 2.15625,46.25 C 1.4965514,47.534158 1.5535255,49.069245 2.3065999,50.300968 C 3.0596744,51.532692 4.4000532,52.283106 5.84375,52.28125 L 12.5625,52.28125 C 14.091743,52.283392 15.497602,51.44228 16.21875,50.09375 L 23.5,36.375 L 28.21875,49.5625 C 28.817678,51.201468 30.380043,52.288874 32.125,52.28125 L 59.03125,52.28125 C 60.682445,52.284924 62.177907,51.306982 62.836531,49.792824 C 63.495156,48.278667 63.190964,46.517916 62.0625,45.3125 L 46.0625,28.28125 L 57.21875,28.28125 C 59.493589,28.273218 61.335718,26.431089 61.34375,24.15625 L 61.34375,18.34375 C 61.335718,16.068911 59.493589,14.226782 57.21875,14.21875 L 31.40625,14.21875 C 29.795505,14.220631 28.332103,15.156668 27.654982,16.618177 C 26.977861,18.079686 27.209983,19.801264 28.25,21.03125 L 42.78125,38 L 33.6875,37.9375 L 25.03125,16.78125 C 24.330799,15.041884 22.54867,13.990556 20.6875,14.21875 L 20.6875,14.21875 z "
       transform="translate(5.053192e-2,-0.137524)" />
    <path
       style="fill:#000000;fill-opacity:1;fill-rule:evenodd;stroke:#000000;stroke-width:1.70000041;stroke-linecap:round;stroke-linejoin:round;stroke-miterlimit:4;stroke-dasharray:none;stroke-opacity:1"
       d="M 5.8500002,47.652025 L 21.175876,17.85 L 30.867692,41.53836 L 51.82762,41.691623 L 31.393124,17.85 L 57.213295,17.85 L 57.213295,23.657143 L 36.501749,23.657143 L 59.037972,47.652025 L 32.122995,47.652025 L 24.241051,25.624829 L 12.549255,47.652025 L 5.8500002,47.652025 z "
       id="path2217"
       sodipodi:nodetypes="ccccccccccccc" />
  </g>
</svg>
