<?xml version="1.0" encoding="UTF-8" standalone="no"?>
<!-- Created with Inkscape (http://www.inkscape.org/) -->
<svg
   xmlns:dc="http://purl.org/dc/elements/1.1/"
   xmlns:cc="http://web.resource.org/cc/"
   xmlns:rdf="http://www.w3.org/1999/02/22-rdf-syntax-ns#"
   xmlns:svg="http://www.w3.org/2000/svg"
   xmlns="http://www.w3.org/2000/svg"
   xmlns:sodipodi="http://inkscape.sourceforge.net/DTD/sodipodi-0.dtd"
   xmlns:inkscape="http://www.inkscape.org/namespaces/inkscape"
   width="64px"
   height="64px"
   id="svg2200"
   sodipodi:version="0.32"
   inkscape:version="0.43"
   sodipodi:docbase="/Users/lijon/Coding/AlgoScore"
   sodipodi:docname="as_icon3.svg">
  <defs
     id="defs2202" />
  <sodipodi:namedview
     id="base"
     pagecolor="#ffffff"
     bordercolor="#666666"
     borderopacity="1.0"
     inkscape:pageopacity="0.0"
     inkscape:pageshadow="2"
     inkscape:zoom="6.2179545"
     inkscape:cx="11.704911"
     inkscape:cy="27.45798"
     inkscape:current-layer="layer1"
     showgrid="true"
     inkscape:document-units="px"
     inkscape:grid-bbox="true"
     inkscape:window-width="856"
     inkscape:window-height="660"
     inkscape:window-x="205"
     inkscape:window-y="250" />
  <metadata
     id="metadata2205">
    <rdf:RDF>
      <cc:Work
         rdf:about="">
        <dc:format>image/svg+xml</dc:format>
        <dc:type
           rdf:resource="http://purl.org/dc/dcmitype/StillImage" />
      </cc:Work>
    </rdf:RDF>
  </metadata>
  <g
     id="layer1"
     inkscape:label="Layer 1"
     inkscape:groupmode="layer">
    <rect
       style="opacity:1;fill:#88b881;fill-opacity:1;fill-rule:evenodd;stroke:#000000;stroke-width:2;stroke-linecap:round;stroke-linejoin:miter;stroke-miterlimit:4;stroke-dasharray:none;stroke-dashoffset:0;stroke-opacity:1"
       id="rect2194"
       width="62.016319"
       height="54.710518"
       x="0.991853"
       y="4.6447291"
       ry="21.214403"
       rx="20.554562" />
    <g
       id="g1317"
       transform="matrix(1.266086,0,0,1.12632,-6.419458,-0.154668)"
       style="fill:#ffffff;fill-opacity:1;stroke:#000000;stroke-opacity:1;stroke-width:1.67481752;stroke-miterlimit:4;stroke-dasharray:none">
      <path
         id="text2190"
         d="M 14.957737,39.096857 C 13.286369,39.096857 11.823925,38.45814 10.570407,37.180706 C 9.3168805,35.903278 8.690119,34.412937 8.690122,32.709688 C 8.690119,31.006451 9.3168805,29.516111 10.570407,28.238671 C 11.823925,26.961248 13.286369,26.322533 14.957737,26.32252 L 25.403769,26.32252 L 25.403769,24.193466 C 25.403749,23.625731 25.194828,23.12895 24.777006,22.703123 C 24.359147,22.277329 23.871665,22.064422 23.314561,22.064405 L 14.957737,22.064405 C 14.40061,22.064422 13.91313,21.851517 13.495294,21.425688 C 13.077447,20.999897 12.868527,20.503115 12.868534,19.93535 C 12.868527,19.367622 13.077447,18.870845 13.495294,18.445011 C 13.91313,18.019222 14.40061,17.806316 14.957737,17.806294 L 23.314561,17.806294 C 24.985908,17.806316 26.448351,18.445031 27.701893,19.722445 C 28.955395,20.999897 29.582155,22.490234 29.582179,24.193466 L 29.582179,36.967799 C 29.582155,37.535549 29.373236,38.032328 28.955418,38.45814 C 28.537554,38.883952 28.050076,39.096857 27.492973,39.096857 L 14.957737,39.096857 M 25.403769,30.580631 L 14.957737,30.580631 C 14.40061,30.58064 13.91313,30.793544 13.495294,31.219349 C 13.077447,31.645166 12.868527,32.141945 12.868534,32.709688 C 12.868527,33.277441 13.077447,33.77422 13.495294,34.200028 C 13.91313,34.625843 14.40061,34.838747 14.957737,34.838746 L 25.403769,34.838746 L 25.403769,30.580631"
         style="font-size:30.33879089px;font-style:normal;font-variant:normal;font-weight:normal;font-stretch:normal;text-align:start;line-height:100%;writing-mode:lr-tb;text-anchor:start;fill:#ffffff;fill-opacity:1;stroke:#000000;stroke-width:1.67481752;stroke-linecap:butt;stroke-linejoin:miter;stroke-opacity:1;font-family:White Rabbit SWE;stroke-miterlimit:4;stroke-dasharray:none" />
      <path
         id="text2194"
         d="M 37.375556,30.774341 C 35.704183,30.774347 34.24174,30.135632 32.988223,28.85819 C 31.734694,27.580766 31.107934,26.090429 31.107938,24.38717 C 31.107934,22.683942 31.734694,21.193601 32.988223,19.91615 C 34.24174,18.638735 35.704183,18.00002 37.375556,18 L 49.910794,18 C 50.467892,18.00002 50.955377,18.212924 51.373238,18.638717 C 51.791057,19.064547 51.999976,19.561326 52.000001,20.129055 C 51.999976,20.696822 51.791057,21.193601 51.373238,21.619397 C 50.955377,22.045224 50.467892,22.25813 49.910794,22.258112 C 42.111077,22.25813 37.932668,22.25813 37.375556,22.258112 C 36.818425,22.25813 36.330944,22.471034 35.913112,22.89683 C 35.495263,23.322657 35.286343,23.819436 35.28635,24.38717 C 35.286343,24.954933 35.495263,25.451711 35.913112,25.87751 C 36.330944,26.303333 36.818425,26.51624 37.375556,26.516226 L 45.73238,26.516226 C 47.403728,26.51624 48.86617,27.154956 50.119714,28.432377 C 51.373216,29.709821 51.999976,31.200158 52.000001,32.903396 C 51.999976,34.606646 51.373216,36.096986 50.119714,37.374416 C 48.86617,38.651852 47.403728,39.290567 45.73238,39.290567 L 33.197143,39.290567 C 32.640017,39.290567 32.152538,39.077661 31.734698,38.65185 C 31.316854,38.226039 31.107934,37.72926 31.107938,37.161512 C 31.107934,36.593765 31.316854,36.096986 31.734698,35.67117 C 32.152538,35.245362 32.640017,35.032457 33.197143,35.032454 L 45.73238,35.032454 C 46.289486,35.032457 46.776967,34.819551 47.194825,34.393737 C 47.612647,33.967928 47.82157,33.47115 47.821589,32.903396 C 47.82157,32.335653 47.612647,31.838876 47.194825,31.413057 C 46.776967,30.987254 46.26163,30.774347 45.648812,30.774341 L 37.375556,30.774341"
         style="font-size:30.33880043px;font-style:normal;font-variant:normal;font-weight:normal;font-stretch:normal;text-align:start;line-height:100%;writing-mode:lr-tb;text-anchor:start;fill:#ffffff;fill-opacity:1;stroke:#000000;stroke-width:1.67481752;stroke-linecap:butt;stroke-linejoin:miter;stroke-opacity:1;font-family:White Rabbit SWE;stroke-miterlimit:4;stroke-dasharray:none" />
    </g>
    <path
       style="font-size:18.71999931px;font-style:normal;font-variant:normal;font-weight:normal;font-stretch:normal;text-align:start;line-height:100%;writing-mode:lr-tb;text-anchor:start;fill:#000000;fill-opacity:1;stroke:none;stroke-width:1px;stroke-linecap:butt;stroke-linejoin:miter;stroke-opacity:1;font-family:Bitstream Vera Sans"
       d="M 22.511154,16 L 20.805295,16 L 20.805295,15.387942 C 20.805299,13.749201 21.097505,12.650134 21.681919,12.090735 C 22.266333,11.537903 23.431214,11.261491 25.17656,11.261497 L 28.007814,11.261497 C 29.200333,11.261491 30.025621,11.083798 30.48368,10.728415 C 30.94173,10.373024 31.170758,9.728062 31.170762,8.793528 L 31.170762,8.191344 L 32.864777,8.191344 L 32.864777,8.793528 C 32.864768,9.734642 33.089846,10.379604 33.540012,10.728415 C 33.998058,11.083798 34.815449,11.261491 35.992185,11.261497 L 38.835285,11.261497 C 40.580618,11.261491 41.74155,11.537903 42.318084,12.090735 C 42.90248,12.650134 43.194687,13.749201 43.194705,15.387942 L 43.194705,16 L 41.500692,16 L 41.500692,15.328711 C 41.500676,14.400745 41.326929,13.795269 40.979457,13.512285 C 40.631951,13.229282 39.901434,13.087786 38.787902,13.087794 L 35.850032,13.087794 C 34.610113,13.087786 33.7098,12.936418 33.149087,12.633687 C 32.588357,12.337524 32.209277,11.827478 32.011845,11.103547 C 31.798608,11.83406 31.411629,12.347397 30.850914,12.64356 C 30.290186,12.939709 29.393821,13.087786 28.161816,13.087794 L 25.223946,13.087794 C 24.110399,13.087786 23.379881,13.229282 23.032389,13.512285 C 22.684901,13.795269 22.511156,14.400745 22.511154,15.328711 L 22.511154,16"
       id="text2330" />
    <path
       style="font-size:18.71999931px;font-style:normal;font-variant:normal;font-weight:normal;font-stretch:normal;text-align:start;line-height:100%;writing-mode:lr-tb;text-anchor:start;fill:#000000;fill-opacity:1;stroke:none;stroke-width:1px;stroke-linecap:butt;stroke-linejoin:miter;stroke-opacity:1;font-family:Bitstream Vera Sans"
       d="M 22.511155,48.191347 L 22.511155,48.882379 C 22.511156,49.803749 22.680953,50.402642 23.020543,50.679059 C 23.360137,50.962048 24.094603,51.103545 25.223946,51.10355 L 28.161816,51.10355 C 29.393821,51.103545 30.290186,51.251622 30.850914,51.547784 C 31.411631,51.843934 31.798608,52.357271 32.011847,53.087797 C 32.209278,52.357271 32.588357,51.843934 33.149087,51.547784 C 33.7098,51.251622 34.610114,51.103545 35.850032,51.10355 L 38.787902,51.10355 C 39.909332,51.103545 40.639849,50.962048 40.979459,50.679059 C 41.326931,50.402642 41.500676,49.803749 41.500692,48.88238 L 41.500692,48.191348 L 43.194705,48.191348 L 43.194705,48.813275 C 43.194687,50.452001 42.902481,51.544488 42.318084,52.090737 C 41.741549,52.643555 40.580617,52.919967 38.835285,52.919975 L 35.992187,52.919975 C 34.815449,52.919967 33.998059,53.097661 33.540012,53.453057 C 33.089846,53.808436 32.864768,54.453398 32.864777,55.387943 L 32.864777,56 L 31.170762,56 L 31.170762,55.387943 C 31.170756,54.453398 30.94173,53.808436 30.48368,53.453057 C 30.025621,53.097661 29.200332,52.919967 28.007815,52.919975 L 25.17656,52.919975 C 23.431215,52.919967 22.266333,52.643555 21.681917,52.090737 C 21.097505,51.544488 20.805299,50.452001 20.805295,48.813275 L 20.805295,48.191347 L 22.511155,48.191347"
       id="text2334" />
  </g>
</svg>
