<?xml version="1.0" encoding="UTF-8" standalone="no"?>
<!-- Created with Inkscape (http://www.inkscape.org/) -->
<svg
   xmlns:dc="http://purl.org/dc/elements/1.1/"
   xmlns:cc="http://web.resource.org/cc/"
   xmlns:rdf="http://www.w3.org/1999/02/22-rdf-syntax-ns#"
   xmlns:svg="http://www.w3.org/2000/svg"
   xmlns="http://www.w3.org/2000/svg"
   xmlns:sodipodi="http://inkscape.sourceforge.net/DTD/sodipodi-0.dtd"
   xmlns:inkscape="http://www.inkscape.org/namespaces/inkscape"
   width="64px"
   height="64px"
   id="svg2200"
   sodipodi:version="0.32"
   inkscape:version="0.43"
   sodipodi:docbase="/Users/lijon/Coding/AlgoScore"
   sodipodi:docname="as_icon2.svg">
  <defs
     id="defs2202" />
  <sodipodi:namedview
     id="base"
     pagecolor="#ffffff"
     bordercolor="#666666"
     borderopacity="1.0"
     inkscape:pageopacity="0.0"
     inkscape:pageshadow="2"
     inkscape:zoom="6.2179545"
     inkscape:cx="11.704911"
     inkscape:cy="27.45798"
     inkscape:current-layer="layer1"
     showgrid="true"
     inkscape:document-units="px"
     inkscape:grid-bbox="true"
     inkscape:window-width="856"
     inkscape:window-height="660"
     inkscape:window-x="205"
     inkscape:window-y="250" />
  <metadata
     id="metadata2205">
    <rdf:RDF>
      <cc:Work
         rdf:about="">
        <dc:format>image/svg+xml</dc:format>
        <dc:type
           rdf:resource="http://purl.org/dc/dcmitype/StillImage" />
      </cc:Work>
    </rdf:RDF>
  </metadata>
  <g
     id="layer1"
     inkscape:label="Layer 1"
     inkscape:groupmode="layer">
    <rect
       style="opacity:1;fill:#ffffff;fill-opacity:1;fill-rule:evenodd;stroke:#000000;stroke-width:1;stroke-linecap:round;stroke-linejoin:miter;stroke-miterlimit:4;stroke-dasharray:none;stroke-dashoffset:0;stroke-opacity:1"
       id="rect2194"
       width="62.016319"
       height="42.428818"
       x="0.991853"
       y="10.785591"
       ry="21.214409"
       rx="25.05765" />
    <g
       id="g1317"
       transform="matrix(0.854309,0,0,0.76,6.075941,10.30319)"
       style="fill:#5367b7;fill-opacity:1;stroke:none;stroke-opacity:1">
      <path
         id="text2190"
         d="M 14.957737,39.096857 C 13.286369,39.096857 11.823925,38.45814 10.570407,37.180706 C 9.3168805,35.903278 8.690119,34.412937 8.690122,32.709688 C 8.690119,31.006451 9.3168805,29.516111 10.570407,28.238671 C 11.823925,26.961248 13.286369,26.322533 14.957737,26.32252 L 25.403769,26.32252 L 25.403769,24.193466 C 25.403749,23.625731 25.194828,23.12895 24.777006,22.703123 C 24.359147,22.277329 23.871665,22.064422 23.314561,22.064405 L 14.957737,22.064405 C 14.40061,22.064422 13.91313,21.851517 13.495294,21.425688 C 13.077447,20.999897 12.868527,20.503115 12.868534,19.93535 C 12.868527,19.367622 13.077447,18.870845 13.495294,18.445011 C 13.91313,18.019222 14.40061,17.806316 14.957737,17.806294 L 23.314561,17.806294 C 24.985908,17.806316 26.448351,18.445031 27.701893,19.722445 C 28.955395,20.999897 29.582155,22.490234 29.582179,24.193466 L 29.582179,36.967799 C 29.582155,37.535549 29.373236,38.032328 28.955418,38.45814 C 28.537554,38.883952 28.050076,39.096857 27.492973,39.096857 L 14.957737,39.096857 M 25.403769,30.580631 L 14.957737,30.580631 C 14.40061,30.58064 13.91313,30.793544 13.495294,31.219349 C 13.077447,31.645166 12.868527,32.141945 12.868534,32.709688 C 12.868527,33.277441 13.077447,33.77422 13.495294,34.200028 C 13.91313,34.625843 14.40061,34.838747 14.957737,34.838746 L 25.403769,34.838746 L 25.403769,30.580631"
         style="font-size:30.33879089px;font-style:normal;font-variant:normal;font-weight:normal;font-stretch:normal;text-align:start;line-height:100%;writing-mode:lr-tb;text-anchor:start;fill:#5367b7;fill-opacity:1;stroke:none;stroke-width:1px;stroke-linecap:butt;stroke-linejoin:miter;stroke-opacity:1;font-family:White Rabbit SWE" />
      <path
         id="text2194"
         d="M 37.375556,30.774341 C 35.704183,30.774347 34.24174,30.135632 32.988223,28.85819 C 31.734694,27.580766 31.107934,26.090429 31.107938,24.38717 C 31.107934,22.683942 31.734694,21.193601 32.988223,19.91615 C 34.24174,18.638735 35.704183,18.00002 37.375556,18 L 49.910794,18 C 50.467892,18.00002 50.955377,18.212924 51.373238,18.638717 C 51.791057,19.064547 51.999976,19.561326 52.000001,20.129055 C 51.999976,20.696822 51.791057,21.193601 51.373238,21.619397 C 50.955377,22.045224 50.467892,22.25813 49.910794,22.258112 C 42.111077,22.25813 37.932668,22.25813 37.375556,22.258112 C 36.818425,22.25813 36.330944,22.471034 35.913112,22.89683 C 35.495263,23.322657 35.286343,23.819436 35.28635,24.38717 C 35.286343,24.954933 35.495263,25.451711 35.913112,25.87751 C 36.330944,26.303333 36.818425,26.51624 37.375556,26.516226 L 45.73238,26.516226 C 47.403728,26.51624 48.86617,27.154956 50.119714,28.432377 C 51.373216,29.709821 51.999976,31.200158 52.000001,32.903396 C 51.999976,34.606646 51.373216,36.096986 50.119714,37.374416 C 48.86617,38.651852 47.403728,39.290567 45.73238,39.290567 L 33.197143,39.290567 C 32.640017,39.290567 32.152538,39.077661 31.734698,38.65185 C 31.316854,38.226039 31.107934,37.72926 31.107938,37.161512 C 31.107934,36.593765 31.316854,36.096986 31.734698,35.67117 C 32.152538,35.245362 32.640017,35.032457 33.197143,35.032454 L 45.73238,35.032454 C 46.289486,35.032457 46.776967,34.819551 47.194825,34.393737 C 47.612647,33.967928 47.82157,33.47115 47.821589,32.903396 C 47.82157,32.335653 47.612647,31.838876 47.194825,31.413057 C 46.776967,30.987254 46.26163,30.774347 45.648812,30.774341 L 37.375556,30.774341"
         style="font-size:30.33880043px;font-style:normal;font-variant:normal;font-weight:normal;font-stretch:normal;text-align:start;line-height:100%;writing-mode:lr-tb;text-anchor:start;fill:#5367b7;fill-opacity:1;stroke:none;stroke-width:1px;stroke-linecap:butt;stroke-linejoin:miter;stroke-opacity:1;font-family:White Rabbit SWE" />
    </g>
    <path
       style="font-size:18.71999931px;font-style:normal;font-variant:normal;font-weight:normal;font-stretch:normal;text-align:start;line-height:100%;writing-mode:lr-tb;text-anchor:start;fill:#000000;fill-opacity:1;stroke:none;stroke-width:1px;stroke-linecap:butt;stroke-linejoin:miter;stroke-opacity:1;font-family:Bitstream Vera Sans"
       d="M 11.577727,39.907372 L 11.577727,41.328921 L 10.965669,41.328921 C 9.3269277,41.328918 8.2278603,41.085413 7.6684614,40.598401 C 7.1156299,40.111389 6.8392179,39.140655 6.8392233,37.6862 L 6.8392233,35.326822 C 6.8392179,34.333056 6.6615244,33.645316 6.3061418,33.2636 C 5.9507505,32.881892 5.3057886,32.691035 4.3712548,32.691032 L 3.7690706,32.691032 L 3.7690706,31.279353 L 4.3712548,31.279353 C 5.312369,31.27936 5.957331,31.091795 6.3061418,30.716657 C 6.6615244,30.334952 6.8392179,29.653793 6.8392233,28.673179 L 6.8392233,26.303929 C 6.8392179,24.849485 7.1156299,23.882042 7.6684614,23.401597 C 8.2278603,22.9146 9.3269277,22.671094 10.965669,22.671079 L 11.577727,22.671079 L 11.577727,24.082757 L 10.906438,24.082757 C 9.9784716,24.08277 9.3729962,24.227559 9.0900114,24.517119 C 8.8070092,24.806708 8.665513,25.415472 8.6655206,26.343415 L 8.6655206,28.79164 C 8.665513,29.824906 8.5141446,30.575167 8.2114141,31.042428 C 7.9152511,31.509703 7.4052049,31.825603 6.6812733,31.990129 C 7.4117864,32.167827 7.9251234,32.490309 8.2212864,32.957572 C 8.5174353,33.424845 8.665513,34.171816 8.6655206,35.198487 L 8.6655206,37.646712 C 8.665513,38.574668 8.8070092,39.183433 9.0900114,39.473009 C 9.3729962,39.762583 9.9784716,39.90737 10.906438,39.907372 L 11.577727,39.907372"
       id="text2330" />
    <path
       style="font-size:18.71999931px;font-style:normal;font-variant:normal;font-weight:normal;font-stretch:normal;text-align:start;line-height:100%;writing-mode:lr-tb;text-anchor:start;fill:#000000;fill-opacity:1;stroke:none;stroke-width:1px;stroke-linecap:butt;stroke-linejoin:miter;stroke-opacity:1;font-family:Bitstream Vera Sans"
       d="M 52.352172,39.907371 L 53.043204,39.907371 C 53.964574,39.90737 54.563467,39.765873 54.839884,39.482881 C 55.122873,39.199886 55.26437,38.587831 55.264375,37.646712 L 55.264375,35.198487 C 55.26437,34.171816 55.412447,33.424845 55.708609,32.957572 C 56.004759,32.490308 56.518096,32.167827 57.248622,31.990128 C 56.518096,31.825602 56.004759,31.509703 55.708609,31.042428 C 55.412447,30.575167 55.26437,29.824905 55.264375,28.79164 L 55.264375,26.343415 C 55.26437,25.40889 55.122873,24.800126 54.839884,24.517118 C 54.563467,24.227558 53.964574,24.08277 53.043204,24.082757 L 52.352172,24.082757 L 52.352172,22.671079 L 52.9741,22.671079 C 54.612826,22.671094 55.705313,22.914599 56.251562,23.401597 C 56.80438,23.882043 57.080792,24.849486 57.0808,26.303929 L 57.0808,28.673178 C 57.080792,29.653793 57.258486,30.334951 57.613882,30.716657 C 57.969261,31.091795 58.614223,31.27936 59.548768,31.279353 L 60.160825,31.279353 L 60.160825,32.691032 L 59.548768,32.691032 C 58.614223,32.691037 57.969261,32.881892 57.613882,33.2636 C 57.258486,33.645316 57.080792,34.333057 57.0808,35.326821 L 57.0808,37.6862 C 57.080792,39.140654 56.80438,40.111389 56.251562,40.598403 C 55.705313,41.085413 54.612826,41.328918 52.9741,41.328921 L 52.352172,41.328921 L 52.352172,39.907371"
       id="text2334" />
  </g>
</svg>
